HIERARCHY
ROOT Hips
{
    OFFSET 0.000000 0.000000 0.000000
    CHANNELS 6 Xposition Yposition Zposition Zrotation Xrotation Yrotation
    JOINT Spine
    {
        OFFSET -0.000000 8.267054 0.000000
        CHANNELS 3 Zrotation Xrotation Yrotation
        JOINT Spine1
        {
            OFFSET -0.000000 23.684998 0.000000
            CHANNELS 3 Zrotation Xrotation Yrotation
            JOINT Neck
            {
                OFFSET -0.000000 23.587730 2.144339
                CHANNELS 3 Zrotation Xrotation Yrotation
                JOINT Head
                {
                    OFFSET -0.000000 14.114483 -2.016355
                    CHANNELS 3 Zrotation Xrotation Yrotation
                    End Site
                    {
                        OFFSET -0.000000 25.204432 0.000000
                    }
                }
            }
            JOINT LeftShoulder
            {
                OFFSET 4.070090 22.062094 -0.247321
                CHANNELS 3 Zrotation Xrotation Yrotation
                JOINT LeftArm
                {
                    OFFSET 10.395479 0.000000 0.000000
                    CHANNELS 3 Zrotation Xrotation Yrotation
                    JOINT LeftForeArm
                    {
                        OFFSET 37.713577 0.000000 0.000000
                        CHANNELS 3 Zrotation Xrotation Yrotation
                        JOINT LeftHand
                        {
                            OFFSET 20.284107 0.000000 0.000000
                            CHANNELS 3 Zrotation Xrotation Yrotation
                            End Site
                            {
                                OFFSET 15.122660 0.000000 0.000000
                            }
                        }
                    }
                }
            }
            JOINT RightShoulder
            {
                OFFSET -3.979272 22.062094 -0.247321
                CHANNELS 3 Zrotation Xrotation Yrotation
                JOINT RightArm
                {
                    OFFSET -10.395479 0.000000 0.000000
                    CHANNELS 3 Zrotation Xrotation Yrotation
                    JOINT RightForeArm
                    {
                        OFFSET -37.713577 0.000000 0.000000
                        CHANNELS 3 Zrotation Xrotation Yrotation
                        JOINT RightHand
                        {
                            OFFSET -20.284107 0.000000 0.000000
                            CHANNELS 3 Zrotation Xrotation Yrotation
                            End Site
                            {
                                OFFSET -15.122660 0.000000 0.000000
                            }
                        }
                    }
                }
            }
        }
    }
    JOINT LeftUpLeg
    {
        OFFSET 10.081773 0.000000 0.000000
        CHANNELS 3 Zrotation Xrotation Yrotation
        JOINT LeftLeg
        {
            OFFSET -0.000000 -36.382099 0.000000
            CHANNELS 3 Zrotation Xrotation Yrotation
            JOINT LeftFoot
            {
                OFFSET -0.000000 -49.182560 0.000000
                CHANNELS 3 Zrotation Xrotation Yrotation
                JOINT LeftToeBase
                {
                    OFFSET -0.000000 -6.553152 15.122660
                    CHANNELS 3 Zrotation Xrotation Yrotation
                    End Site
                    {
                        OFFSET -0.000000 0.000000 4.032709
                    }
                }
            }
        }
    }
    JOINT RightUpLeg
    {
        OFFSET -10.081773 0.000000 0.000000
        CHANNELS 3 Zrotation Xrotation Yrotation
        JOINT RightLeg
        {
            OFFSET -0.000000 -36.382099 0.000000
            CHANNELS 3 Zrotation Xrotation Yrotation
            JOINT RightFoot
            {
                OFFSET -0.000000 -49.182560 0.000000
                CHANNELS 3 Zrotation Xrotation Yrotation
                JOINT RightToeBase
                {
                    OFFSET -0.000000 -6.553152 15.122660
                    CHANNELS 3 Zrotation Xrotation Yrotation
                    End Site
                    {
                        OFFSET -0.000000 0.000000 4.032709
                    }
                }
            }
        }
    }
}
MOTION
Frames:    10
Frame Time:    0.008333
-35.107170    92.423546    6.891055    -0.504955    -0.161767    -173.701218    -1.980986    -9.051650    -0.137038    -0.000707    -0.118482    0.022213    3.477280    21.198231    -7.137158    4.479748    3.559736    -6.766045    17.330681    -0.398989    -7.324381    -34.168446    13.863330    1.607335    2.742245    -10.530657    -6.374381    17.621973    -9.992105    2.545117    -12.003973    0.284154    -2.799563    36.188847    6.053162    -0.781711    -3.211996    -16.615759    8.702160    -11.570693    -16.683054    3.105095    -1.024460    -5.063450    1.682648    2.112972    15.387515    -0.048744    -0.099124    -10.055762    -2.650330    0.000000    0.000000    0.000000    -2.199492    -2.393816    -0.823881    1.444317    12.293922    -1.629909    0.490503    -8.999187    -9.302711    0.000000    0.000000    0.000000    
-35.111004    92.421135    6.904835    -0.504275    -0.178518    -173.692398    -1.984312    -9.050663    -0.134949    0.049699    -0.062585    0.022710    3.440229    21.127728    -7.119228    4.483106    3.570997    -6.751539    16.995146    -0.149096    -7.200589    -35.053547    14.266698    1.532454    2.505222    -10.482224    -6.539041    17.299444    -9.968469    2.490378    -11.766400    0.462165    -2.906789    37.044472    6.244823    -0.734879    -3.019631    -16.350315    8.538666    -11.272639    -16.427528    3.099645    -1.030707    -5.087538    1.678760    2.115206    15.384300    -0.050784    -0.095802    -10.060778    -2.652238    0.000000    0.000000    0.000000    -2.202470    -2.411337    -0.829799    1.441651    12.281586    -1.650228    0.484237    -9.000416    -9.282663    0.000000    0.000000    0.000000    
-35.115093    92.418709    6.918830    -0.503646    -0.195689    -173.683136    -1.986552    -9.051330    -0.133030    0.099531    -0.002217    0.023913    3.402470    21.053482    -7.101670    4.488198    3.583717    -6.737407    16.647160    0.113666    -7.070976    -35.965454    14.677783    1.440037    2.259853    -10.427036    -6.693267    16.960192    -9.944147    2.403862    -11.517533    0.652093    -3.017402    37.928410    6.438446    -0.675451    -2.817613    -16.080635    8.357257    -10.951200    -16.169500    3.112131    -1.037177    -5.112193    1.674847    2.117506    15.381118    -0.054768    -0.091727    -10.065583    -2.653334    0.000000    0.000000    0.000000    -2.205556    -2.429389    -0.835648    1.438697    12.269440    -1.669836    0.477102    -9.001367    -9.263457    0.000000    0.000000    0.000000    
-35.119480    92.416344    6.932507    -0.503298    -0.212972    -173.673477    -1.986922    -9.055143    -0.131184    0.145801    0.063132    0.025919    3.364924    20.977299    -7.085957    4.497138    3.597290    -6.724779    16.292370    0.386313    -6.937082    -36.880123    15.090636    1.328145    2.012115    -10.376868    -6.835283    16.614733    -9.928847    2.293669    -11.261166    0.854780    -3.130581    38.821007    6.632666    -0.600936    -2.612461    -15.815708    8.166208    -10.611320    -15.916843    3.139881    -1.043875    -5.136578    1.670707    2.119541    15.377714    -0.060276    -0.086651    -10.069847    -2.654083    0.000000    0.000000    0.000000    -2.209085    -2.447585    -0.841103    1.435826    12.257877    -1.689013    0.469501    -9.002193    -9.245196    0.000000    0.000000    0.000000    
-35.124165    92.414146    6.945409    -0.503398    -0.229973    -173.663605    -1.985000    -9.062316    -0.129350    0.186001    0.132370    0.028389    3.326921    20.900589    -7.072612    4.514411    3.612629    -6.713753    15.936454    0.664437    -6.800858    -37.777260    15.497645    1.198135    1.766872    -10.334855    -6.965326    16.273071    -9.923723    2.168687    -11.001142    1.068223    -3.245710    39.705456    6.828040    -0.510556    -2.407386    -15.570638    7.974046    -10.269663    -15.684349    3.180824    -1.050558    -5.159767    1.665698    2.120585    15.373748    -0.066187    -0.080958    -10.073150    -2.654494    0.000000    0.000000    0.000000    -2.213039    -2.465310    -0.846792    1.432732    12.247002    -1.707628    0.462427    -9.002898    -9.227400    0.000000    0.000000    0.000000    
-35.129463    92.412064    6.958004    -0.503983    -0.247662    -173.652954    -1.979974    -9.073057    -0.127438    0.219535    0.207659    0.030658    3.287334    20.821466    -7.061011    4.543497    3.629340    -6.703377    15.563811    0.961644    -6.655504    -38.699177    15.919324    1.043980    1.513686    -10.294693    -7.093687    15.920193    -9.921995    2.036070    -10.722717    1.303648    -3.369164    40.623158    7.039531    -0.397786    -2.189217    -15.347045    7.776310    -9.930095    -15.474536    3.234452    -1.057701    -5.182817    1.659584    2.120610    15.368497    -0.072062    -0.074992    -10.075175    -2.654765    0.000000    0.000000    0.000000    -2.217903    -2.483199    -0.852226    1.429801    12.236032    -1.726627    0.455075    -9.003793    -9.210291    0.000000    0.000000    0.000000    
-35.135311    92.410133    6.969845    -0.505143    -0.265666    -173.641449    -1.971336    -9.086046    -0.125370    0.243153    0.284659    0.031720    3.249020    20.743549    -7.052211    4.584311    3.646905    -6.694551    15.184248    1.271757    -6.505018    -39.628315    16.348289    0.869442    1.260535    -10.245440    -7.217918    15.560126    -9.909810    1.912807    -10.428200    1.556918    -3.498491    41.553574    7.269952    -0.264070    -1.963447    -15.148553    7.575718    -9.597249    -15.290558    3.300835    -1.065206    -5.205060    1.651536    2.119292    15.362265    -0.076068    -0.069228    -10.076548    -2.655214    0.000000    0.000000    0.000000    -2.223544    -2.500624    -0.857800    1.426785    12.225079    -1.745112    0.448006    -9.004654    -9.194458    0.000000    0.000000    0.000000    
-35.141533    92.408409    6.980633    -0.506674    -0.283762    -173.628998    -1.959360    -9.099816    -0.124657    0.256304    0.358494    0.032434    3.213887    20.669094    -7.047262    4.633821    3.666977    -6.688552    14.807662    1.589044    -6.353657    -40.544685    16.775826    0.677437    1.016011    -10.182543    -7.330262    15.201139    -9.881842    1.800598    -10.125416    1.821151    -3.629762    42.476925    7.517611    -0.114408    -1.741473    -14.965250    7.370172    -9.255365    -15.121313    3.381330    -1.072921    -5.226441    1.642466    2.117241    15.355649    -0.078613    -0.064001    -10.077417    -2.656214    0.000000    0.000000    0.000000    -2.229661    -2.517171    -0.863117    1.423881    12.214033    -1.763724    0.441851    -9.005369    -9.179835    0.000000    0.000000    0.000000    
-35.148125    92.406830    6.990375    -0.508537    -0.302002    -173.615112    -1.943881    -9.113791    -0.123662    0.259409    0.427641    0.030090    3.180667    20.598558    -7.045699    4.690813    3.691049    -6.685187    14.431543    1.916729    -6.200902    -41.453327    17.202620    0.467437    0.775835    -10.107454    -7.430445    14.849026    -9.840987    1.689472    -9.815892    2.097100    -3.760426    43.403671    7.788383    0.048330    -1.523569    -14.793031    7.159479    -8.902800    -14.962147    3.471113    -1.080823    -5.247131    1.632871    2.114671    15.348809    -0.082030    -0.058665    -10.078003    -2.656948    0.000000    0.000000    0.000000    -2.236042    -2.532747    -0.868999    1.420660    12.202722    -1.783978    0.436708    -9.006165    -9.164286    0.000000    0.000000    0.000000    
-35.155285    92.405304    6.999409    -0.510825    -0.321219    -173.598984    -1.924236    -9.128337    -0.125643    0.252845    0.493391    0.027207    3.148753    20.531370    -7.047119    4.753873    3.718250    -6.684212    14.039814    2.269374    -6.040977    -42.388092    17.640182    0.232630    0.521687    -10.014851    -7.528901    14.509692    -9.784087    1.570472    -9.490107    2.396036    -3.892968    44.374844    8.096903    0.228372    -1.294060    -14.633743    6.944051    -8.553400    -14.815655    3.564182    -1.089332    -5.267968    1.622986    2.111888    15.341202    -0.088033    -0.052916    -10.078438    -2.657157    0.000000    0.000000    0.000000    -2.242885    -2.548175    -0.876424    1.416827    12.190951    -1.806887    0.432234    -9.007372    -9.146444    0.000000    0.000000    0.000000    
